<svg xmlns="http://www.w3.org/2000/svg" width="128" height="128" viewBox="0 0 128 128">
  <title>PET FOOD </title>
  <g>
    <g>
      <g>
        <path d="M67.594,26.807H56.536l2.431-14.778A6.78,6.78,0,0,1,65.406,6.5h0a4.57,4.57,0,0,1,4.619,5.529Z" fill="#ffd203"/>
        <rect x="10.186" y="20.646" width="70.649" height="97.167" fill="#ffd203"/>
        <g>
          <g>
            <path d="M61.309,65.14c4.884-7,1.38-18.384,1.38-18.384A36.908,36.908,0,0,0,47.821,59.138C49.491,59.887,59.238,64.261,61.309,65.14Z" fill="#bdbdc6"/>
            <path d="M29.712,65.14c-4.884-7-1.38-18.384-1.38-18.384A36.908,36.908,0,0,1,43.2,59.138C41.529,59.887,31.783,64.261,29.712,65.14Z" fill="#bdbdc6"/>
          </g>
          <path d="M65.871,69.647c0,11.245-9.116,22.057-20.361,22.057S25.15,80.892,25.15,69.647s9.115-18.664,20.36-18.664S65.871,58.4,65.871,69.647Z" fill="#eaeaf0"/>
          <path d="M48.448,77.674c0,1.623-1.315,4-2.938,4s-2.937-2.375-2.937-4S43.888,75.8,45.51,75.8,48.448,76.052,48.448,77.674Z" fill="#bdbdc6"/>
        </g>
        <rect x="6.5" y="114.128" width="78.021" height="7.372" fill="#2097e0"/>
        <rect x="6.5" y="16.653" width="78.021" height="7.372" fill="#2097e0"/>
      </g>
      <g>
        <path d="M118.4,101.089a5.309,5.309,0,0,1-5.308,5.308H64.157a5.309,5.309,0,0,1,0-10.617c.155,0,.3.011.453.023a5.279,5.279,0,0,1,4.855-3.2,4.948,4.948,0,0,1,1.714.3,5.281,5.281,0,0,1,5-3.561,5.031,5.031,0,0,1,1.482.221,5.3,5.3,0,0,1,4.854-3.174,5.242,5.242,0,0,1,1.106.122,5.294,5.294,0,0,1,10.02,0,5.242,5.242,0,0,1,1.106-.122A5.3,5.3,0,0,1,99.6,89.565a5.036,5.036,0,0,1,1.482-.221,5.292,5.292,0,0,1,5,3.55,5.1,5.1,0,0,1,1.7-.287,5.281,5.281,0,0,1,4.855,3.2c.144-.012.3-.023.453-.023A5.31,5.31,0,0,1,118.4,101.089Z" fill="#663325"/>
        <path d="M121.5,121.5H55.16L57.1,105.119a3.8,3.8,0,0,1,3.777-3.357h54.916a3.8,3.8,0,0,1,3.776,3.357Z" fill="#eaeaf0"/>
      </g>
    </g>
    <g>
      <path d="M14.436,33.375v9a1.75,1.75,0,0,0,3.5,0v-9a1.75,1.75,0,0,0-3.5,0Z" fill="#072130"/>
      <path d="M57.909,67.082a1.751,1.751,0,0,0,.17-2.469,5.37,5.37,0,0,0-7.518,0,1.75,1.75,0,0,0,2.638,2.3,2.04,2.04,0,0,1,2.24,0,1.752,1.752,0,0,0,2.47.17Z" fill="#072130"/>
      <path d="M40.291,67.081a1.752,1.752,0,0,0,.169-2.47,5.371,5.371,0,0,0-7.519,0,1.75,1.75,0,0,0,2.64,2.3,2.042,2.042,0,0,1,2.24,0A1.752,1.752,0,0,0,40.291,67.081Z" fill="#072130"/>
      <path d="M68.015,80.018a1.75,1.75,0,1,0,1.34-3.234A16.9,16.9,0,0,0,66.745,76a23.762,23.762,0,0,0,.876-6.349,20.131,20.131,0,0,0-2.394-9.668,32,32,0,0,0-.865-13.735,1.75,1.75,0,0,0-2.3-1.116,34.049,34.049,0,0,0-8.537,5.361,26.173,26.173,0,0,0-16.021,0,34.08,34.08,0,0,0-8.536-5.361,1.751,1.751,0,0,0-2.3,1.116,32,32,0,0,0-.865,13.736A20.141,20.141,0,0,0,23.4,69.647,23.75,23.75,0,0,0,24.276,76a16.973,16.973,0,0,0-2.61.789,1.75,1.75,0,0,0,1.339,3.234,13.265,13.265,0,0,1,2.457-.693q.456,1.039,1,2.028a10.287,10.287,0,0,0-2.192.964,1.75,1.75,0,0,0,1.814,2.994,8.292,8.292,0,0,1,2.379-.881c4.128,5.429,10.352,9.025,17.045,9.025S58.427,89.86,62.556,84.43a8.262,8.262,0,0,1,2.379.881,1.75,1.75,0,0,0,1.814-2.994,10.318,10.318,0,0,0-2.193-.964q.546-.988,1-2.028A13.274,13.274,0,0,1,68.015,80.018ZM61.5,49.272a30.872,30.872,0,0,1,.64,6.522,20.276,20.276,0,0,0-4.96-3.739A34.442,34.442,0,0,1,61.5,49.272Zm-31.983,0a34.286,34.286,0,0,1,4.32,2.786,20.262,20.262,0,0,0-4.961,3.739A30.814,30.814,0,0,1,29.519,49.269ZM58.163,80.678a1.747,1.747,0,0,0,.084,3.465A17.777,17.777,0,0,1,45.51,89.955a17.773,17.773,0,0,1-12.736-5.812,1.747,1.747,0,0,0,.084-3.465,12.288,12.288,0,0,0-2.785-.029c-.323-.523-.627-1.059-.906-1.611a13.183,13.183,0,0,1,2.966.431,1.75,1.75,0,0,0,.916-3.378,17.28,17.28,0,0,0-5.283-.56,20.562,20.562,0,0,1-.867-5.884A16.294,16.294,0,0,1,37.724,54.135a1.682,1.682,0,0,0,.236-.1,21.7,21.7,0,0,1,7.55-1.3c10.784,0,18.611,7.113,18.611,16.914a20.573,20.573,0,0,1-.866,5.885,17.271,17.271,0,0,0-5.283.559,1.75,1.75,0,0,0,.916,3.378,13.182,13.182,0,0,1,2.965-.431q-.419.828-.905,1.611A12.288,12.288,0,0,0,58.163,80.678Z" fill="#072130"/>
      <path d="M51.414,80.992c-1.667,1.056-2.594,1.127-3.016,1.071a6.834,6.834,0,0,0,1.8-4.389c0-1.654-.814-3.626-4.688-3.626s-4.687,1.972-4.687,3.626a6.838,6.838,0,0,0,1.8,4.389c-.421.056-1.349-.015-3.016-1.071a1.75,1.75,0,0,0-1.873,2.957,8.986,8.986,0,0,0,4.676,1.636,4.737,4.737,0,0,0,1.62-.276,4.268,4.268,0,0,0,1.481-.919,4.268,4.268,0,0,0,1.481.919,4.737,4.737,0,0,0,1.62.276,8.986,8.986,0,0,0,4.676-1.636,1.75,1.75,0,0,0-1.873-2.957Zm-7.091-3.34a6.832,6.832,0,0,1,2.375,0v.022a2.971,2.971,0,0,1-1.173,2.247h-.006a2.908,2.908,0,0,1-1.2-2.248Z" fill="#072130"/>
      <path d="M23.833,112.38a1.75,1.75,0,0,0,0,3.5h3a1.75,1.75,0,0,0,0-3.5Z" fill="#072130"/>
      <path d="M123.238,121.294l-.672-5.682a1.75,1.75,0,0,0-3.475.411l.44,3.727h-62.4l1.7-14.426a2.054,2.054,0,0,1,2.039-1.812h54.916a2.054,2.054,0,0,1,2.039,1.812l.457,3.872a1.75,1.75,0,1,0,3.476-.411l-.458-3.871a5.517,5.517,0,0,0-1.222-2.858,6.986,6.986,0,0,0,.07-.966,7.069,7.069,0,0,0-6.466-7.035,7.038,7.038,0,0,0-5.9-3.2c-.244,0-.487.013-.728.037a7.057,7.057,0,0,0-5.972-3.307q-.3,0-.585.025A7.049,7.049,0,0,0,94.75,84.64H94.7a7.047,7.047,0,0,0-12.117-.024V30.667a1.75,1.75,0,0,0-3.5,0V85.56a7,7,0,0,0-2.314,2.055q-.291-.025-.586-.025a7.039,7.039,0,0,0-5.969,3.31,6.916,6.916,0,0,0-.751-.04,7.026,7.026,0,0,0-5.894,3.2,7.065,7.065,0,0,0-6.456,7.035c0,.126.015.252.023.379a5.531,5.531,0,0,0-1.776,3.444l-.882,7.467H33.062a1.75,1.75,0,1,0,0,3.5h21l-.458,3.87H8.25v-3.87h9.833a1.75,1.75,0,0,0,0-3.5H11.94v-86.6H84.521a1.75,1.75,0,0,0,1.75-1.75V16.653a1.751,1.751,0,0,0-1.75-1.75H71.331l.426-2.592a7.251,7.251,0,0,0,.093-1.181,6.269,6.269,0,0,0-6.44-6.38,8.486,8.486,0,0,0-8.166,7l-.52,3.157H6.5a1.751,1.751,0,0,0-1.75,1.75v7.372a1.75,1.75,0,0,0,1.75,1.75H8.44v86.6H6.5a1.751,1.751,0,0,0-1.75,1.75v7.37a1.751,1.751,0,0,0,1.75,1.75h115a1.75,1.75,0,0,0,1.738-1.956ZM60.7,12.313A5.041,5.041,0,0,1,65.41,8.25a2.784,2.784,0,0,1,2.94,2.88,3.881,3.881,0,0,1-.047.616L67.784,14.9H60.271ZM8.25,18.4H82.771v3.872H8.25ZM64.16,97.53c.105,0,.21.008.336.016a1.748,1.748,0,0,0,1.721-1.054A3.528,3.528,0,0,1,69.46,94.36a3.191,3.191,0,0,1,1.112.191,1.75,1.75,0,0,0,2.263-1.073A3.535,3.535,0,0,1,76.18,91.09a3.009,3.009,0,0,1,.938.144,1.751,1.751,0,0,0,2.145-.962A3.551,3.551,0,0,1,82.51,88.14a3.994,3.994,0,0,1,.768.086,1.749,1.749,0,0,0,2-1.151,3.546,3.546,0,0,1,6.708,0,1.748,1.748,0,0,0,2,1.151,3.994,3.994,0,0,1,.768-.086A3.555,3.555,0,0,1,98,90.273a1.75,1.75,0,0,0,2.145.961,2.994,2.994,0,0,1,.937-.144,3.55,3.55,0,0,1,3.348,2.378,1.751,1.751,0,0,0,2.216,1.079,3.547,3.547,0,0,1,4.389,1.945,1.738,1.738,0,0,0,1.729,1.053c.1-.006.218-.015.328-.015a3.552,3.552,0,0,1,3.395,2.547,5.521,5.521,0,0,0-.7-.065H60.872c-.028,0-.053.007-.08.008A3.544,3.544,0,0,1,64.16,97.53Z" fill="#072130"/>
      <path d="M97.149,106.4a2.482,2.482,0,0,0-2.477,2.382H81.987a2.483,2.483,0,1,0-4.191,1.9,2.483,2.483,0,1,0,4.191,1.9H94.672a2.484,2.484,0,1,0,4.191-1.9,2.482,2.482,0,0,0-1.714-4.283Z" fill="#072130"/>
    </g>
  </g>
</svg>
