<?xml version="1.0" encoding="iso-8859-1"?>
<!-- Uploaded to: SVG Repo, www.svgrepo.com, Generator: SVG Repo Mixer Tools -->
<svg height="800px" width="800px" version="1.1" id="Layer_1" xmlns="http://www.w3.org/2000/svg" xmlns:xlink="http://www.w3.org/1999/xlink" 
	 viewBox="0 0 512 512" xml:space="preserve">
<path style="fill:#9EFDFF;" d="M377.46,79.082h0.819V42.998H134.54v36.084c-32.07,0-58.067,25.997-58.067,58.067v294.81
	c0,44.206,35.836,80.042,80.042,80.042h198.969c44.206,0,80.042-35.836,80.042-80.042v-294.81
	C435.527,105.079,409.529,79.082,377.46,79.082z"/>
<path style="opacity:0.3;fill:#20272E;enable-background:new    ;" d="M84.174,108.266h343.652
	c-10.02-17.435-28.815-29.184-50.366-29.184H134.54C112.989,79.082,94.194,90.831,84.174,108.266z"/>
<path style="fill:#664B33;" d="M380.25,0h-248.5C96.203,0,67.386,28.816,67.386,64.364v14.718c14.387,0,28.772,0,43.159,0
	c33.754,0,67.509,0,101.263,0c39.025,0,78.05,0,117.075,0c38.577,0,77.153,0,115.73,0V64.364C444.614,28.816,415.797,0,380.25,0z"/>
<path style="fill:#00C279;" d="M134.54,227.074c-7.271,0-13.185,5.915-13.185,13.185v205.048c0,19.387,15.773,35.16,35.161,35.16
	h198.969c19.387,0,35.16-15.773,35.16-35.16V240.259c0-7.27-5.915-13.185-13.185-13.185H134.54z"/>
<circle style="fill:#FFFFFF;" cx="255.997" cy="227.781" r="95.286"/>
<path style="fill:#00C279;" d="M289.49,219.649c-14.454,0-26.172-11.718-26.172-26.173c0-7.125,2.856-13.576,7.475-18.296
	c-4.702-1.341-9.66-2.073-14.792-2.073c-29.747,0-53.861,24.114-53.861,53.861c0,29.747,24.114,53.861,53.861,53.861
	c29.747,0,53.859-24.114,53.859-53.861c0-5.132-0.734-10.09-2.073-14.792C303.067,216.792,296.615,219.649,289.49,219.649z"/>
<g>
	<path style="fill:#20272E;" d="M263.533,196.67c-2.413-0.598-4.935-0.92-7.533-0.92c-17.241,0-31.218,13.977-31.218,31.218
		c0,17.241,13.977,31.218,31.218,31.218s31.218-13.977,31.218-31.218c0-2.598-0.323-5.12-0.92-7.533
		C274.401,217.983,264.983,208.566,263.533,196.67z"/>
	<path style="opacity:0.3;fill:#20272E;enable-background:new    ;" d="M444.614,64.364C444.614,28.816,415.797,0,380.25,0H256v512
		h99.484c44.206,0,80.042-35.836,80.042-80.042v-294.81c0-14.546-5.361-27.831-14.198-38.02c-0.017-0.018-0.033-0.038-0.05-0.057
		c-2.411-2.773-5.079-5.312-7.972-7.585c-0.088-0.07-0.175-0.138-0.264-0.208c-1.905-1.479-3.9-2.847-5.984-4.084
		c-0.103-0.062-0.208-0.118-0.312-0.179c-0.907-0.531-1.83-1.036-2.769-1.519c-0.192-0.099-0.384-0.199-0.579-0.296
		c-2.097-1.049-4.265-1.979-6.498-2.772c-0.233-0.083-0.469-0.158-0.705-0.238c-0.884-0.301-1.776-0.581-2.678-0.84
		c-0.289-0.083-0.579-0.168-0.869-0.247c-1.09-0.295-2.189-0.567-3.304-0.799c-0.038-0.008-0.075-0.018-0.113-0.026
		c-1.149-0.237-2.314-0.43-3.488-0.598c-0.322-0.046-0.646-0.083-0.969-0.124c-0.886-0.112-1.778-0.202-2.674-0.273
		c-0.344-0.028-0.688-0.058-1.035-0.079c-1.195-0.074-2.396-0.122-3.609-0.122h67.154v-14.72H444.614z"/>
</g>
<g>
	<circle style="fill:#00E891;" cx="169.35" cy="347.746" r="20.597"/>
	<circle style="fill:#00E891;" cx="209.597" cy="437.996" r="15.189"/>
	<circle style="fill:#00E891;" cx="335.124" cy="378.474" r="15.189"/>
</g>
</svg>